<?xml version="1.0" encoding="utf-8"?>
<!-- Generator: Adobe Illustrator 25.1.0, SVG Export Plug-In . SVG Version: 6.00 Build 0)  -->
<svg version="1.1" id="Capa_1" xmlns="http://www.w3.org/2000/svg" xmlns:xlink="http://www.w3.org/1999/xlink" x="0px" y="0px"
	 viewBox="0 0 337.4 137.1" style="enable-background:new 0 0 337.4 137.1;" xml:space="preserve">
<style type="text/css">
	.st0{clip-path:url(#SVGID_2_);fill:url(#SVGID_3_);}
	.st1{clip-path:url(#SVGID_5_);fill:url(#SVGID_6_);}
	.st2{fill-rule:evenodd;clip-rule:evenodd;fill:#194E82;}
	.st3{fill:none;stroke:#FFFFFF;stroke-width:1.856;stroke-miterlimit:22.926;}
	.st4{fill-rule:evenodd;clip-rule:evenodd;fill:#FFFFFF;}
	.st5{fill-rule:evenodd;clip-rule:evenodd;fill:#EDEDED;}
	.st6{fill:#EDEDED;}
	.st7{clip-path:url(#SVGID_8_);fill:url(#SVGID_9_);}
</style>
<g>
	<defs>
		<path id="SVGID_1_" d="M0,68.6c0,37.9,30.7,68.6,68.6,68.6s68.6-30.7,68.6-68.6C137.1,30.7,106.4,0,68.6,0S0,30.7,0,68.6"/>
	</defs>
	<clipPath id="SVGID_2_">
		<use xlink:href="#SVGID_1_"  style="overflow:visible;"/>
	</clipPath>
	
		<linearGradient id="SVGID_3_" gradientUnits="userSpaceOnUse" x1="-44.8634" y1="69.6338" x2="128.3563" y2="69.6338" gradientTransform="matrix(0.7917 0 0 0.7917 35.5204 13.4407)">
		<stop  offset="0" style="stop-color:#B67D18"/>
		<stop  offset="0.3984" style="stop-color:#FAE475"/>
		<stop  offset="1" style="stop-color:#C79727"/>
	</linearGradient>
	<rect class="st0" width="137.1" height="137.1"/>
</g>
<g>
	<defs>
		<path id="SVGID_4_" d="M0,68.6c0,37.9,30.7,68.6,68.6,68.6s68.6-30.7,68.6-68.6C137.1,30.7,106.4,0,68.6,0S0,30.7,0,68.6"/>
	</defs>
	<clipPath id="SVGID_5_">
		<use xlink:href="#SVGID_4_"  style="overflow:visible;"/>
	</clipPath>
	
		<linearGradient id="SVGID_6_" gradientUnits="userSpaceOnUse" x1="-44.8634" y1="69.6338" x2="128.3563" y2="69.6338" gradientTransform="matrix(0.7917 0 0 0.7917 35.5204 13.4407)">
		<stop  offset="0" style="stop-color:#B67D18"/>
		<stop  offset="0.3984" style="stop-color:#FAE475"/>
		<stop  offset="1" style="stop-color:#C79727"/>
	</linearGradient>
	<rect class="st1" width="137.1" height="137.1"/>
</g>
<path class="st2" d="M68.6,16c69.1,1.2,69.1,103.9,0,105.1C-0.5,119.9-0.5,17.2,68.6,16"/>
<path class="st3" d="M68.6,16c69.1,1.2,69.1,103.9,0,105.1C-0.5,119.9-0.5,17.2,68.6,16z"/>
<path class="st4" d="M64.5,58.8c-14.6-15.9-41.8,3.2-26.1,20.7c7.3,7.9,25.5,6.1,27.8-5.7H55.3v-5.5h17.2
	c2.2,20.3-25.8,28.6-38.1,15.1C13.9,60.8,47,34.3,67.6,53.9C66.3,55.4,65.3,57.1,64.5,58.8"/>
<path class="st4" d="M73.5,77.7c6.5,9.8,26.7,8.7,29.3-3.9H91.9v-5.5H109c2.2,20.5-26.3,28.7-38.4,14.8
	C71.8,81.4,72.8,79.6,73.5,77.7 M105.3,54.9l-4.1,4c-9.1-10-28.4-7.1-30.6,7h-5.8C66.8,46.7,92.9,41.1,105.3,54.9"/>
<rect x="147" y="31.5" class="st5" width="4.4" height="71.4"/>
<path class="st6" d="M331.4,86.5c0.3-1.8-1.1-7.2,2-7.2c2.9,0,1.4,5.5,1.7,7.2h2.3v-5c0.4-4.1-4.7-6-7-2.7c-0.9-2.1-4-2.3-5.1-0.4
	l-0.2-1.1H323v9.2h2.3c0.3-1.8-1.1-7.2,2-7.2c3,0,1.6,5.5,1.9,7.2H331.4z M316.6,79.2c3.2,0,3.4,5.4,0,5.4
	C313.3,84.7,313.3,79.2,316.6,79.2 M316.6,77.2c-6.3-0.1-6.3,9.7,0,9.6C323,86.9,322.9,77,316.6,77.2 M309.6,83.9
	c-5.8,4-6.1-7.6-0.1-3.9l1.4-1.5c-10.9-6.9-10.6,14.2,0.2,6.9L309.6,83.9z M299,85.4c0,1.8,2.7,1.8,2.7,0
	C301.6,83.6,299,83.6,299,85.4 M290.9,77.4v9.2h2.3c0-2.7-0.8-9.4,3.9-6.6l1-2c-1.3-1.1-3.8-1.4-5,0.4l-0.2-1.1H290.9z M284,79.2
	c3.6,0,3.6,5.6,0,5.6C280.5,85,280.5,78.9,284,79.2 M286.8,78.6c-2.3-3.2-8-1.1-7.7,3.3c-0.3,4.5,5.3,6.7,7.7,3.3l0.1,1.3h2.1v-9.2
	h-2.2L286.8,78.6z M277.6,86.5c0.6-5-0.6-12.6-6.9-7.9l-0.1-1.2h-2v9.2h2.3c0.2-2-1-7.3,2.3-7.3c3.4-0.1,1.9,5.3,2.2,7.3H277.6z
	 M261.7,79.2c3.6,0,3.6,5.6,0,5.6C258.1,85,258.1,78.9,261.7,79.2 M264.4,78.6c-2.3-3.2-8-1.1-7.7,3.3c-0.3,4.5,5.3,6.7,7.7,3.3
	l0.1,1.3h2.1v-9.2h-2.2L264.4,78.6z M251.1,79.1c3.1-0.2,3.1,5.3,0,5.1C248,84.5,248,78.9,251.1,79.1 M253.2,77.6
	c-6.7-3.5-9.9,8.9-2.1,8.8c6.1,1-1.3,6.9-2.4,1.8h-2.3c0.4,8.1,14.6,2.5,7.4-3c2.4-1.3,2.5-4.3,1-6.1l1-1.3l-1.7-1.3L253.2,77.6z
	 M245,86.5c0.6-5-0.6-12.6-6.9-7.9l-0.1-1.2h-2v9.2h2.3c0.2-2-1-7.3,2.3-7.3c3.4-0.1,1.9,5.3,2.2,7.3H245z M227.1,80.9
	c0.5-2.3,4.7-2.4,5,0H227.1z M234.2,82.8c1.3-7.4-9.7-7.4-9.5-0.9c-0.4,4.7,5.9,6.4,9,3.4l-1.5-1.4c-1.4,1.4-5.1,1-5.2-1.1H234.2z
	 M219,79.1c3.1-0.2,3.1,5.3,0,5.1C215.9,84.5,215.9,78.9,219,79.1 M221.1,77.6c-6.7-3.5-9.9,8.9-2.1,8.8c6.1,1-1.3,6.9-2.4,1.8h-2.3
	c0.4,8.1,14.6,2.5,7.4-3c2.4-1.3,2.5-4.3,1-6.1l1-1.3l-1.7-1.3L221.1,77.6z M210.5,85.4c0,1.8,2.7,1.8,2.7,0
	C213.2,83.6,210.5,83.6,210.5,85.4 M200.1,77.3l-2,6.9l-2.1-6.9h-2.5l3.2,9.2h2.6c0.6-1.4,1.4-4.3,1.8-5.8c0.3,1.5,1.2,4.4,1.8,5.8
	h2.6l3.2-9.2h-2.5l-2.1,6.9l-2-6.9H200.1z M183.1,77.3l-2,6.9l-2.1-6.9h-2.5l3.2,9.2h2.6c0.5-1.4,1.4-4.3,1.8-5.8
	c0.3,1.5,1.2,4.4,1.8,5.8h2.6l3.2-9.2h-2.5l-2.1,6.9l-2-6.9H183.1z M166.1,77.3l-2,6.9l-2.1-6.9h-2.5l3.2,9.2h2.6
	c0.5-1.4,1.4-4.3,1.8-5.8c0.3,1.5,1.2,4.4,1.8,5.8h2.6l3.2-9.2h-2.5l-2.1,6.9l-2-6.9H166.1z"/>
<g>
	<defs>
		<path id="SVGID_7_" d="M335.7,48.1c-2.2,0-3.7,0.6-5,2.1l-1-2h-4.2v18.1h6.2v-9.2c0-2.3,0.9-3.3,3.1-3.3h2.4v-5.7H335.7z
			 M214.1,50l-0.9-1.9h-4.4v18.1h6.2v-9.7c0-2.3,1.1-3.7,3.1-3.7c1.6,0,2.4,1,2.4,3.2v10.2h6.2V55.2c0-4.6-2.8-7.6-7-7.6
			C217.5,47.6,215.5,48.5,214.1,50 M285.9,50l-0.9-1.9h-4.4v18.1h6.2v-9.7c0-2.3,1.1-3.7,3.1-3.7c1.6,0,2.4,1,2.4,3.2v10.2h6.2V55.2
			c0-4.6-2.8-7.6-7-7.6C289.2,47.6,287.2,48.5,285.9,50 M262.6,57.2c0-2.4,1.7-4.1,4.1-4.1c2.3,0,4.1,1.8,4.1,4.1
			c0,2.4-1.7,4.1-4.1,4.1C264.3,61.4,262.6,59.6,262.6,57.2 M256.3,57.2c0,5.6,4,9.7,9.5,9.7c2.1,0,4-0.7,5.5-1.9l0.5,1.3h4.8V48.2
			H272l-0.6,1.4c-1.5-1.2-3.4-1.9-5.5-1.9C260.3,47.6,256.3,51.6,256.3,57.2 M307.5,57.2c0-2.4,1.7-4.1,4.1-4.1
			c2.3,0,4.1,1.8,4.1,4.1c0,2.4-1.7,4.1-4.1,4.1C309.2,61.4,307.5,59.6,307.5,57.2 M301.2,57.2c0,5.6,4,9.7,9.5,9.7
			c2.1,0,4-0.7,5.5-1.9l0.5,1.3h4.8V48.2h-4.7l-0.6,1.4c-1.5-1.2-3.4-1.9-5.5-1.9C305.2,47.6,301.2,51.6,301.2,57.2 M196.1,52.5
			c1.9,0,3.2,1,3.7,2.8h-7.3C193.1,53.5,194.3,52.5,196.1,52.5 M186.3,57.2c0,5.5,4.2,9.7,9.9,9.7c4.6,0,8.2-2.6,9.5-6.7h-6.2
			c-0.6,1.1-1.8,1.7-3.3,1.7c-2,0-3.3-1.1-3.7-3.2h13.5c0.1-0.6,0.1-1.1,0.1-1.7c0-5.3-4-9.5-9.9-9.5
			C190.5,47.6,186.3,51.7,186.3,57.2 M159.5,54.6c0,7.2,5.3,12.3,12.5,12.3c7.4,0,12.4-5.5,12.4-13.2h-12.9v4.1h5.8
			c-0.7,1.8-2.9,3-5.3,3c-3.6,0-5.9-2.5-5.9-6.3c0-3.8,2.4-6.3,5.9-6.3c2.4,0,4.5,1.3,5.4,3.3h6.8c-1-5.5-6-9.3-12.2-9.3
			C164.7,42.2,159.5,47.4,159.5,54.6 M229.5,54.6c0,7.2,5.3,12.3,12.5,12.3c7.4,0,12.4-5.5,12.4-13.2h-12.9v4.1h5.8
			c-0.7,1.8-2.9,3-5.3,3c-3.6,0-5.9-2.5-5.9-6.3c0-3.8,2.4-6.3,5.9-6.3c2.4,0,4.5,1.3,5.4,3.3h6.8c-1-5.5-6-9.3-12.2-9.3
			C234.7,42.2,229.5,47.4,229.5,54.6"/>
	</defs>
	<clipPath id="SVGID_8_">
		<use xlink:href="#SVGID_7_"  style="overflow:visible;"/>
	</clipPath>
	
		<linearGradient id="SVGID_9_" gradientUnits="userSpaceOnUse" x1="156.5586" y1="51.9248" x2="381.2241" y2="51.9248" gradientTransform="matrix(0.7917 0 0 0.7917 35.5204 13.4407)">
		<stop  offset="0" style="stop-color:#B67D18"/>
		<stop  offset="0.3203" style="stop-color:#A46519"/>
		<stop  offset="0.7031" style="stop-color:#E7C942"/>
		<stop  offset="1" style="stop-color:#C18C15"/>
	</linearGradient>
	<rect x="159.5" y="42.2" class="st7" width="177.9" height="24.7"/>
</g>
</svg>
